<svg width="17" height="17" viewBox="0 0 17 17" version="1.1" xmlns="http://www.w3.org/2000/svg" xmlns:xlink="http://www.w3.org/1999/xlink">
<title></title>
<desc>Created using Figma</desc>
<g id="Canvas" transform="matrix(0.485714 0 0 0.485714 2396.03 973.857)">
<g id="Shape">
<use xlink:href="#path0_fill" transform="translate(-4933 -2005)" fill="#202020"/>
</g>
</g>
<defs>
<path id="path0_fill" fill-rule="evenodd" d="M 34.3393 3.39806L 34.3569 3.39806L 33.2557 9.06149L 30.2341 9.06149L 27.6001 9.06149L 27.4415 9.06149L 16.0773 9.06149L 15.8042 9.06149L 6.98591 9.06149L 8.30735 15.8576L 15.8042 15.8576L 26.2786 15.8576L 31.9343 15.8576L 29.0712 30.5825L 19.8154 30.5825L 14.5415 30.5825L 5.2857 30.5825L 4.18452 24.9191L 7.21495 24.9191L 10.0692 24.9191L 24.5167 24.9191L 25.1774 21.521L 23.3627 21.521L 9.40853 21.521L 3.5238 21.521L 0 3.39806L 2.06141 3.39806L 6.64234 3.39806L 7.11807 3.39806L 14.9761 3.39806L 25.6532 3.39806L 28.5427 3.39806L 29.2034 0L 35 0L 34.3393 3.39806ZM 14.1613 32.2815C 13.4547 33.8815 11.8418 34.9999 9.96354 34.9999C 8.08543 34.9999 6.47295 33.8813 5.76611 32.2815L 14.1613 32.2815ZM 28.591 32.2815C 27.8841 33.8813 26.2716 34.9999 24.3935 34.9999C 22.5153 34.9999 20.9024 33.8815 20.1958 32.2815L 28.591 32.2815Z"/>
</defs>
</svg>
